<svg width="18" height="19" viewBox="0 0 18 19" fill="none" xmlns="http://www.w3.org/2000/svg">
<path d="M9.0054 7.22956C11.0018 7.22956 12.6202 5.61117 12.6202 3.61478C12.6202 1.61839 11.0018 0 9.0054 0C7.00902 0 5.39062 1.61839 5.39062 3.61478C5.39062 5.61117 7.00902 7.22956 9.0054 7.22956Z" fill="#4B37D3"/>
<path d="M17.9576 15.5905C17.5827 13.8833 16.7229 12.3206 15.4815 11.0901C15.1802 10.7878 14.8537 10.5117 14.5055 10.2648C12.9199 9.07536 10.9871 8.44029 9.00503 8.45737C6.5814 8.44496 4.25118 9.39134 2.52253 11.0901C1.28115 12.3206 0.421364 13.8833 0.0464032 15.5905C-0.0187708 15.8924 -0.0152502 16.2051 0.0567045 16.5054C0.128659 16.8057 0.267207 17.0861 0.462103 17.3256C0.663942 17.5703 0.918111 17.7667 1.20589 17.9001C1.49366 18.0336 1.80771 18.1008 2.1249 18.0968H15.8852C16.2033 18.097 16.5174 18.0256 16.8042 17.8879C17.091 17.7503 17.3431 17.5499 17.5419 17.3015C17.7333 17.0648 17.8699 16.7885 17.9418 16.4927C18.0136 16.1968 18.0191 15.8887 17.9576 15.5905Z" fill="#4B37D3"/>
</svg>
